<svg width="30" height="30" viewBox="0 0 30 30" fill="none" xmlns="http://www.w3.org/2000/svg">
<path d="M14.4795 0.0211654C5.54307 0.489727 -0.356012 7.52245 0.0166974 16.3907C0.17949 20.2725 1.73459 23.6126 2.10301 27.2966C2.19726 28.2509 1.92308 29.4288 3.01979 29.8458C4.36926 30.3573 6.43843 29.4976 7.56941 28.7109C7.95497 28.4487 8.3234 28.1435 8.60614 27.7652C9.77568 28.5433 10.8852 29.2955 12.2775 29.6308C18.408 31.1053 25.1253 27.7308 28.1113 22.3101C33.7233 12.1264 26.1363 -0.589255 14.4795 0.0211654ZM11.0095 21.2741C10.5254 21.6524 10.0584 22.1682 9.52292 22.4648C8.74752 22.8818 8.50761 22.4477 8.2163 21.7599C7.29952 19.5718 7.18814 15.8448 7.72364 13.5536C8.44335 10.437 10.8467 7.6944 14.1497 7.40209C17.4912 7.10548 20.5928 8.80777 21.9937 11.8814C25.0953 18.7207 17.157 25.474 11.0095 21.2784V21.2741Z" fill="#B18C68"/>
</svg>
