<svg width="96" height="18" viewBox="0 0 96 18" fill="none" xmlns="http://www.w3.org/2000/svg">
<path d="M47.6722 0L50.0541 5.11611L55.229 6.01828L51.5261 10.0824L52.3425 15.7561L47.6722 13.1517L43.0019 15.7561L43.8183 10.0824L40.1154 6.01828L45.2903 5.11611L47.6722 0Z" fill="#B18C68"/>
<path d="M67.5355 0L69.9174 5.11611L75.0922 6.01828L71.3894 10.0824L72.2058 15.7561L67.5355 13.1517L62.8652 15.7561L63.6815 10.0824L59.9787 6.01828L65.1536 5.11611L67.5355 0Z" fill="#B18C68"/>
<path d="M87.4066 0L89.7884 5.11611L94.9633 6.01828L91.2605 10.0824L92.0769 15.7561L87.4066 13.1517L82.7362 15.7561L83.5526 10.0824L79.8498 6.01828L85.0247 5.11611L87.4066 0Z" fill="#B18C68"/>
<path d="M27.8089 0L30.1908 5.11611L35.3657 6.01828L31.6629 10.0824L32.4793 15.7561L27.8089 13.1517L23.1386 15.7561L23.955 10.0824L20.2522 6.01828L25.4271 5.11611L27.8089 0Z" fill="#B18C68"/>
<path d="M7.94564 0L10.3275 5.11611L15.5024 6.01828L11.7996 10.0824L12.616 15.7561L7.94564 13.1517L3.27531 15.7561L4.0917 10.0824L0.388887 6.01828L5.56377 5.11611L7.94564 0Z" fill="#B18C68"/>
</svg>
