<svg width="31" height="30" viewBox="0 0 31 30" fill="none" xmlns="http://www.w3.org/2000/svg">
<path fill-rule="evenodd" clip-rule="evenodd" d="M3.60468 14.9655C3.60468 8.2746 9.0918 2.85057 15.8605 2.85057C22.6291 2.85057 28.1163 8.2746 28.1163 14.9655C28.1163 21.6563 22.6291 27.0804 15.8605 27.0804C13.4494 27.0804 11.2051 26.3937 9.31151 25.2077C8.9591 24.9871 8.52728 24.9281 8.12754 25.0459L3.97621 26.2707L5.53924 22.6553C5.72399 22.228 5.6864 21.7386 5.43851 21.3438C4.27613 19.4922 3.60468 17.3085 3.60468 14.9655ZM15.8605 0C7.49916 0 0.720961 6.70028 0.720961 14.9655C0.720961 17.5853 1.40316 20.0513 2.60206 22.1955L0.116029 27.9455C-0.103743 28.4539 -0.00632769 29.042 0.365975 29.4545C0.738278 29.8671 1.31832 30.0296 1.85422 29.8714L8.34176 27.9577C10.558 29.2133 13.1263 29.931 15.8605 29.931C24.2218 29.931 31 23.2307 31 14.9655C31 6.70028 24.2218 0 15.8605 0ZM19.1659 18.076L17.271 19.3954C16.3836 18.8957 15.4024 18.1982 14.4182 17.2253C13.395 16.2139 12.6365 15.1697 12.0772 14.2119L13.2814 13.2016C13.7982 12.768 13.9396 12.037 13.6213 11.4454L12.0869 8.59486C11.8803 8.21102 11.5077 7.9414 11.0751 7.86264C10.6426 7.78389 10.1973 7.90463 9.86589 8.19052L9.41097 8.58299C8.31698 9.5268 7.66998 11.0777 8.20622 12.6481C8.76216 14.2761 9.94859 16.8383 12.3791 19.2409C14.9941 21.8258 17.6502 22.8437 19.2036 23.2391C20.4551 23.5575 21.6394 23.1307 22.474 22.4585L23.3269 21.7715C23.6916 21.4778 23.8885 21.0264 23.8541 20.5624C23.8197 20.0985 23.5584 19.6803 23.1541 19.4422L20.7342 18.0169C20.2455 17.7291 19.6312 17.7522 19.1659 18.076Z" fill="#B18C68"/>
</svg>
